<svg width="295" height="138" viewBox="0 0 295 138" fill="none" xmlns="http://www.w3.org/2000/svg">
<g clip-path="url(#clip0)">
<path d="M61.7227 127.099C62.8794 131.13 66.2567 133.952 69.7797 136.349C70.2716 136.684 70.7637 137.011 71.2559 137.33C71.2593 137.332 71.2627 137.335 71.2661 137.336C71.2897 137.352 71.3135 137.367 71.3355 137.382C71.4371 137.448 71.5388 137.514 71.6395 137.579L71.5842 137.604C71.5842 137.604 71.5298 137.633 71.5893 137.608C71.607 137.601 71.6255 137.594 71.6432 137.587C73.6898 136.758 75.7728 135.867 77.3412 134.314C78.9683 132.701 79.9191 130.171 79.0381 128.051C78.9223 127.774 78.776 127.51 78.602 127.265C78.5305 127.162 78.4535 127.064 78.3734 126.968C77.8874 126.372 77.2522 125.917 76.5332 125.649C75.8141 125.382 75.0371 125.311 74.282 125.446C73.5269 125.58 72.8211 125.914 72.237 126.413C71.6529 126.912 71.2117 127.558 70.9588 128.285C70.6999 125.864 72.687 123.837 74.5993 122.34C76.5125 120.845 78.6864 119.216 79.0562 116.809C79.2628 115.469 78.7991 114.171 77.9545 113.129C77.9283 113.097 77.9022 113.066 77.8753 113.035C76.8471 111.821 75.401 111.042 73.8258 110.852C70.8923 110.546 68.0428 112.106 65.9116 114.155C62.4815 117.452 60.4078 122.516 61.7227 127.099Z" fill="#F1F1F1"/>
<path d="M67.237 121.826C66.674 122.706 66.2417 123.664 65.9539 124.669C65.7104 125.568 65.6021 126.498 65.6324 127.429C65.7109 129.344 66.2461 131.212 67.193 132.876C67.9062 134.139 68.7754 135.305 69.78 136.349C70.2719 136.684 70.7639 137.011 71.2562 137.33C71.2595 137.332 71.2629 137.335 71.2663 137.336C71.29 137.352 71.3137 137.367 71.3358 137.382C71.4374 137.448 71.539 137.514 71.6397 137.579C71.6397 137.579 71.5301 137.633 71.5895 137.608C71.6072 137.601 71.6257 137.594 71.6434 137.587C71.4599 136.076 71.6397 134.543 72.1674 133.116C72.6952 131.69 73.5557 130.411 74.6767 129.387C75.8005 128.379 77.1455 127.652 78.6022 127.265C78.5307 127.162 78.4538 127.064 78.3736 126.968C77.811 127.126 77.2635 127.334 76.7374 127.59C74.8568 128.497 73.3169 129.988 72.3458 131.843C71.4743 133.527 71.0992 135.426 71.2645 137.317C71.1804 137.241 71.0963 137.163 71.0146 137.085C69.4594 135.629 68.078 133.957 67.1432 132.027C66.3321 130.393 65.9335 128.584 65.9824 126.758C66.0587 124.768 66.8481 122.925 67.991 121.32C69.2436 119.607 70.7234 118.075 72.3892 116.766C74.068 115.415 75.905 114.276 77.8593 113.373C77.9034 113.353 77.9379 113.316 77.9556 113.27C77.9734 113.225 77.973 113.174 77.9547 113.129C77.9417 113.088 77.9132 113.055 77.8755 113.035C77.8561 113.027 77.8351 113.023 77.814 113.024C77.7929 113.024 77.7722 113.03 77.7536 113.04C77.5123 113.152 77.2727 113.265 77.035 113.383C75.0553 114.366 73.2047 115.592 71.5259 117.034C69.9043 118.422 68.3777 120.009 67.237 121.826Z" fill="white"/>
<path d="M113.55 134.547H116.624L118.086 122.638L113.55 122.638L113.55 134.547Z" fill="#FFB7B7"/>
<path d="M112.767 133.539L118.819 133.539H118.82C119.843 133.539 120.824 133.947 121.547 134.674C122.27 135.4 122.677 136.386 122.677 137.414V137.54L112.767 137.54L112.767 133.539Z" fill="#2F2E41"/>
<path d="M96.9096 134.547H99.9833L101.445 122.638L96.9092 122.638L96.9096 134.547Z" fill="#FFB7B7"/>
<path d="M96.1255 133.539L102.178 133.539H102.179C103.202 133.539 104.183 133.947 104.906 134.674C105.629 135.4 106.036 136.386 106.036 137.414V137.54L96.1257 137.54L96.1255 133.539Z" fill="#2F2E41"/>
<path d="M95.6572 80.5711V112.016L96.4496 132.315H102.987L105.166 94.1043L109.525 109.827L112.298 131.917L120.222 131.519L114.874 80.5711H95.6572Z" fill="#2F2E41"/>
<path d="M103.257 52.3108C105.883 52.3108 108.012 50.1724 108.012 47.5344C108.012 44.8965 105.883 42.7581 103.257 42.7581C100.631 42.7581 98.5024 44.8965 98.5024 47.5344C98.5024 50.1724 100.631 52.3108 103.257 52.3108Z" fill="#FFB8B8"/>
<path d="M101.282 53.5553L100.016 54.898L98.8271 81.7653L112.893 81.3674L109.525 57.8834L106.553 55.0227L105.046 53.5553H101.282Z" fill="#6C63FF"/>
<path d="M99.025 56.4902L100.093 54.7494L100.412 58.4803C100.412 58.4803 102.987 66.839 102.789 74.2026C102.591 81.5662 103.78 98.8806 102.195 99.0796C100.61 99.2786 93.8742 99.6766 93.8742 98.2835C93.8742 96.8904 93.478 59.8734 93.478 59.8734L99.025 56.4902Z" fill="#2F2E41"/>
<path d="M106.234 54.7494L108.931 56.8882L114.874 59.0774C114.874 59.0774 114.874 84.5514 116.063 90.5219C117.251 96.4924 119.43 97.0894 116.657 97.2884C113.883 97.4875 114.081 96.4924 114.081 96.4924C114.081 96.4924 105.959 71.0183 106.355 64.6498C106.752 58.2813 105.838 54.7494 106.234 54.7494Z" fill="#2F2E41"/>
<path d="M98.7589 49.0288C98.7589 49.0288 99.1628 48.3161 99.0689 45.9353C98.975 43.5545 102.584 44.901 105.599 44.6739C108.615 44.4468 107.977 48.6488 107.977 48.6488C107.977 48.6488 108.194 48.399 108.66 46.371C109.126 44.343 108.068 42.322 108.068 42.322C107.757 40.191 106.078 40.874 106.078 40.874C106.887 41.1901 106.731 41.8661 106.731 41.8661C106.047 40.6609 104.368 41.3439 104.368 41.3439C102.13 39.9325 99.8606 41.7911 99.8606 41.7911C97.156 42.4077 98.7421 44.5685 98.7421 44.5685C96.0222 45.9493 98.7589 49.0288 98.7589 49.0288Z" fill="#2F2E41"/>
<path d="M93.8808 95.4058C94.0823 95.1918 94.2347 94.9361 94.3272 94.6566C94.4197 94.3771 94.45 94.0806 94.4161 93.788C94.3822 93.4954 94.2849 93.2139 94.1309 92.9632C93.977 92.7125 93.7702 92.4988 93.5251 92.337L94.3816 87.8139L91.7724 86.6207L90.6522 93.0252C90.4091 93.4568 90.3319 93.963 90.4355 94.4479C90.539 94.9328 90.816 95.3627 91.214 95.6561C91.6119 95.9496 92.1032 96.0862 92.5947 96.04C93.0862 95.9939 93.5438 95.7682 93.8808 95.4058V95.4058Z" fill="#FFB7B7"/>
<path d="M94.4686 59.8734L93.9426 59.5901C93.9426 59.5901 91.1008 60.6695 91.2989 61.4655C91.497 62.2616 89.7141 90.1238 90.3084 91.1189C90.9027 92.114 95.6573 91.3179 95.6573 91.3179L94.4686 59.8734Z" fill="#2F2E41"/>
<path d="M117.084 93.53C116.855 93.3461 116.669 93.114 116.539 92.85C116.409 92.586 116.338 92.2966 116.331 92.0021C116.324 91.7077 116.382 91.4153 116.5 91.1456C116.618 90.8759 116.793 90.6355 117.014 90.4413L115.542 86.0807L117.962 84.5363L119.954 90.7235C120.254 91.1172 120.4 91.6078 120.364 92.1024C120.329 92.597 120.113 93.0613 119.76 93.4072C119.406 93.7531 118.938 93.9567 118.445 93.9793C117.952 94.0019 117.468 93.8421 117.084 93.53V93.53Z" fill="#FFB7B7"/>
<path d="M114.762 89.7283C114.762 89.7283 119.58 89.8559 120.032 88.7877C120.484 87.7196 114.88 60.3732 114.967 59.5573C115.053 58.7413 112.09 58.0673 112.09 58.0673L111.608 58.421L114.762 89.7283Z" fill="#2F2E41"/>
<path d="M146.458 138H59.2289C59.1682 138 59.11 137.976 59.0671 137.933C59.0241 137.889 59 137.831 59 137.77C59 137.709 59.0241 137.65 59.0671 137.607C59.11 137.564 59.1682 137.54 59.2289 137.54H146.458C146.519 137.54 146.577 137.564 146.62 137.607C146.663 137.65 146.687 137.709 146.687 137.77C146.687 137.831 146.663 137.889 146.62 137.933C146.577 137.976 146.519 138 146.458 138Z" fill="#CBCBCB"/>
<path d="M236 70.84H155.488V20.4859H236V70.84ZM157.362 68.9581H234.127V22.3678H157.362V68.9581Z" fill="#E5E5E5"/>
<path d="M235.063 21.4269H156.425V69.899H235.063V21.4269Z" fill="white"/>
<path d="M235.063 33.712V30.7358H224.154V21.4269H221.192V30.7358H201.77V21.4269H198.808V30.7358H168.853V21.4269H165.89V30.7358H156.425V33.712H165.89V45.286H156.425V48.2622H165.89V60.663H156.425V63.6391H181.855V69.899H184.818V63.6391H198.808V69.899H201.77V63.6391H235.063V60.6629H201.77V48.2622H235.063V45.286H224.154V33.7119L235.063 33.712ZM198.808 33.712V37.3495H168.853V33.712H198.808ZM168.853 40.3257H198.808V45.286H168.853V40.3257ZM168.853 60.6629V48.2622H181.855V60.6629L168.853 60.6629ZM198.808 60.6629H184.818V48.2622H198.808V60.6629ZM221.192 45.286H201.77V33.712H221.192V45.286Z" fill="#E6E6E6"/>
<path d="M214.581 14.2709C214.581 22.1525 200.376 39.7103 200.376 39.7103C200.376 39.7103 186.17 22.1525 186.17 14.2709C186.17 10.486 187.667 6.85616 190.331 4.17985C192.995 1.50354 196.608 0 200.376 0C204.143 0 207.756 1.50354 210.42 4.17985C213.085 6.85616 214.581 10.486 214.581 14.2709V14.2709Z" fill="#6C63FF"/>
<path d="M206.87 13.6504C206.87 14.9407 206.489 16.202 205.775 17.2749C205.062 18.3477 204.048 19.1839 202.861 19.6777C201.674 20.1715 200.369 20.3006 199.109 20.0489C197.849 19.7972 196.692 19.1759 195.784 18.2635C194.876 17.3511 194.257 16.1887 194.007 14.9232C193.756 13.6577 193.885 12.3459 194.376 11.1539C194.868 9.96179 195.7 8.9429 196.768 8.22605C197.836 7.5092 199.091 7.12659 200.376 7.12659C201.229 7.12619 202.073 7.29467 202.861 7.62238C203.65 7.9501 204.366 8.43063 204.969 9.0365C205.572 9.64237 206.05 10.3617 206.376 11.1534C206.703 11.9451 206.87 12.7936 206.87 13.6504V13.6504Z" fill="white"/>
<path d="M200.376 50.0102C202.491 50.0102 204.205 48.2878 204.205 46.1632C204.205 44.0386 202.491 42.3163 200.376 42.3163C198.261 42.3163 196.546 44.0386 196.546 46.1632C196.546 48.2878 198.261 50.0102 200.376 50.0102Z" fill="#6C63FF"/>
</g>
<defs>
<clipPath id="clip0">
<rect width="177" height="138" fill="white" transform="translate(59)"/>
</clipPath>
</defs>
</svg>
