<svg width="292" height="138" viewBox="0 0 292 138" fill="none" xmlns="http://www.w3.org/2000/svg">
<g clip-path="url(#clip0)">
<path d="M249 73.3449C249 101.258 231.299 125.042 206.505 134.091C202.733 135.471 198.84 136.492 194.876 137.142C183.973 138.929 172.793 137.914 162.39 134.193C137.44 125.218 119.609 101.354 119.621 73.3312C119.621 37.6377 148.584 8.68983 184.31 8.68983C197.813 8.6702 210.979 12.8921 221.95 20.7588C238.328 32.4868 249 51.6698 249 73.3449Z" fill="#E5E5E5"/>
<path d="M206.505 134.091C202.733 135.471 198.839 136.492 194.876 137.142C183.973 138.929 172.793 137.914 162.39 134.193L165.378 122.212L165.558 121.493L171.654 121.517L202.282 121.627L202.674 122.784L206.505 134.091Z" fill="#2F2E41"/>
<path d="M99.1921 0H43V63.5491H99.1921V0Z" fill="#E6E6E6"/>
<path d="M98.092 1.34442H44.002V62.2048H98.092V1.34442Z" fill="white"/>
<path d="M71.0964 60.0409C72.771 60.0409 74.1284 58.6842 74.1284 57.0105C74.1284 55.3369 72.771 53.9802 71.0964 53.9802C69.4219 53.9802 68.0645 55.3369 68.0645 57.0105C68.0645 58.6842 69.4219 60.0409 71.0964 60.0409Z" fill="#E6E6E6"/>
<path d="M70.5841 22.8877H53.1694V24.6683H70.5841V22.8877Z" fill="#E6E6E6"/>
<path d="M79.4529 28.2233H53.1694V30.0039H79.4529V28.2233Z" fill="#6C63FF"/>
<path d="M76.8729 33.5925H53.1694V35.373H76.8729V33.5925Z" fill="#E6E6E6"/>
<path d="M89.7727 38.8197H53.1694V40.6003H89.7727V38.8197Z" fill="#6C63FF"/>
<path d="M83.3806 43.798H53.5498V45.5785H83.3806V43.798Z" fill="#E6E6E6"/>
<path d="M122.903 103.407C123.117 103.627 123.313 103.862 123.49 104.112L150.955 103.441L154.159 97.589L163.628 101.268L158.962 112.178C158.585 113.06 157.932 113.795 157.102 114.274C156.271 114.753 155.307 114.95 154.355 114.835L123.324 111.088C122.592 112.015 121.595 112.696 120.466 113.042C119.337 113.388 118.129 113.383 117.004 113.026C115.878 112.67 114.888 111.979 114.164 111.046C113.441 110.113 113.019 108.982 112.954 107.804C112.889 106.625 113.185 105.455 113.802 104.449C114.419 103.443 115.328 102.648 116.408 102.17C117.488 101.693 118.688 101.555 119.848 101.776C121.008 101.997 122.073 102.565 122.902 103.406L122.903 103.407Z" fill="#9F616A"/>
<path d="M159.871 69.9923L172.724 65.782L176.499 60.6075L194.87 61.6941L197.567 67.7325L207.363 72.3588L205.858 100.302L203.283 126.454C190.039 119.6 165.324 124.825 165.107 124.91L159.871 69.9923Z" fill="#6C63FF"/>
<path d="M162.618 107.815L149.544 102.587L149.6 102.355C149.656 102.12 155.221 78.8797 155.959 75.145C156.729 71.2541 159.541 70.1783 159.661 70.1346L159.748 70.1025L164.922 71.6765L167.194 89.5215L162.618 107.815Z" fill="#6C63FF"/>
<path d="M190.848 125.304C191.154 125.297 191.461 125.314 191.764 125.355L209.946 104.769L207.831 98.443L216.967 94.0049L221.8 104.842C222.191 105.718 222.287 106.696 222.073 107.63C221.86 108.565 221.349 109.405 220.618 110.025L196.771 130.219C196.952 131.386 196.774 132.579 196.261 133.642C195.747 134.705 194.922 135.586 193.895 136.168C192.868 136.751 191.688 137.007 190.511 136.903C189.335 136.799 188.218 136.339 187.31 135.585C186.401 134.831 185.744 133.819 185.425 132.682C185.107 131.546 185.142 130.339 185.526 129.223C185.91 128.107 186.625 127.135 187.575 126.434C188.526 125.734 189.667 125.34 190.848 125.304V125.304Z" fill="#9F616A"/>
<path d="M208.494 106.772L200.91 88.9422L203.868 76.5223L207.055 72.4979C207.289 72.3981 207.541 72.3478 207.794 72.3502C208.048 72.3525 208.299 72.4075 208.53 72.5116C209.707 72.9843 210.706 74.4336 211.506 76.8188L218.613 97.0537L208.494 106.772Z" fill="#6C63FF"/>
<path d="M169.146 54.0004V40.5581C169.138 38.1926 169.596 35.8487 170.495 33.6603C171.393 31.4719 172.714 29.4818 174.382 27.8036C176.05 26.1254 178.032 24.792 180.216 23.8796C182.4 22.9671 184.742 22.4934 187.108 22.4856C189.475 22.4777 191.82 22.9359 194.01 23.8339C196.199 24.7319 198.191 26.0521 199.87 27.7192C201.549 29.3863 202.883 31.3676 203.796 33.55C204.709 35.7325 205.183 38.0732 205.191 40.4387C205.191 40.4785 205.191 40.5183 205.191 40.5581V54.0004C205.19 54.6419 204.935 55.257 204.481 55.7106C204.027 56.1642 203.411 56.4194 202.77 56.4201H171.567C170.925 56.4194 170.309 56.1642 169.855 55.7106C169.402 55.257 169.146 54.6419 169.146 54.0004V54.0004Z" fill="#2F2E41"/>
<path d="M183.464 56.1069C190.762 56.1069 196.678 50.1943 196.678 42.9006C196.678 35.607 190.762 29.6943 183.464 29.6943C176.167 29.6943 170.251 35.607 170.251 42.9006C170.251 50.1943 176.167 56.1069 183.464 56.1069Z" fill="#9F616A"/>
<path d="M164.882 41.6335C164.886 37.8557 166.389 34.2339 169.062 31.5626C171.735 28.8913 175.359 27.3887 179.138 27.3845H181.829C185.608 27.3887 189.232 28.8913 191.905 31.5626C194.577 34.2339 196.081 37.8557 196.085 41.6335V41.9023H190.4L188.461 36.4752L188.074 41.9023H185.136L184.158 39.1644L183.962 41.9023H164.882V41.6335Z" fill="#2F2E41"/>
<path d="M182.164 57.9319C181.897 57.5707 181.738 57.1415 181.704 56.6937C181.671 56.2459 181.765 55.7978 181.975 55.4009C184.825 49.982 188.816 39.9689 183.519 33.7938L183.139 33.3506H198.519V56.4285L184.547 58.8923C184.406 58.9173 184.263 58.93 184.119 58.9301C183.738 58.9301 183.362 58.8397 183.022 58.6663C182.682 58.4928 182.389 58.2413 182.165 57.9324L182.164 57.9319Z" fill="#2F2E41"/>
<path d="M71.047 4.94946C69.7718 4.9494 68.5252 5.32728 67.4649 6.03531C66.4046 6.74335 65.5781 7.74974 65.09 8.92723C64.602 10.1047 64.4742 11.4004 64.7229 12.6505C64.9717 13.9005 65.5857 15.0488 66.4873 15.95C67.389 16.8513 68.5378 17.4651 69.7885 17.7138C71.0392 17.9626 72.3356 17.835 73.5138 17.3473C74.692 16.8596 75.699 16.0337 76.4075 14.974C77.116 13.9143 77.4942 12.6685 77.4943 11.3939V11.3936C77.4943 10.5473 77.3275 9.70937 77.0035 8.92753C76.6795 8.14569 76.2046 7.4353 75.6059 6.8369C75.0071 6.23851 74.2964 5.76384 73.5141 5.43999C72.7318 5.11614 71.8934 4.94946 71.0467 4.94946H71.047ZM71.047 6.88253C71.4296 6.88253 71.8035 6.9959 72.1216 7.20831C72.4396 7.42071 72.6875 7.72261 72.8339 8.07584C72.9803 8.42906 73.0186 8.81773 72.944 9.19271C72.8694 9.56769 72.6852 9.91213 72.4147 10.1825C72.1442 10.4528 71.7996 10.6369 71.4244 10.7115C71.0492 10.7861 70.6603 10.7478 70.3069 10.6015C69.9535 10.4552 69.6514 10.2074 69.4389 9.88956C69.2264 9.57167 69.1129 9.19793 69.1129 8.81561C69.1129 8.30292 69.3167 7.81124 69.6794 7.44872C70.0421 7.0862 70.5341 6.88253 71.047 6.88253V6.88253ZM71.047 16.1892C70.2829 16.1857 69.5312 15.9959 68.8571 15.6364C68.1829 15.2768 67.6067 14.7583 67.1785 14.1258C67.2096 12.8369 69.7575 12.1275 71.047 12.1275C72.3366 12.1275 74.8845 12.8369 74.9156 14.1258C74.4869 14.7578 73.9106 15.276 73.2366 15.6355C72.5625 15.995 71.811 16.185 71.047 16.1892Z" fill="#6C63FF"/>
<path d="M71.122 58.1722C73.7782 53.3072 80.1413 50.2262 85.3465 53.0033C87.6894 54.2531 89.5519 56.4639 90.1431 59.0769C90.8292 62.1124 89.3835 65.0068 87.8911 67.557C87.0811 68.9412 86.1935 70.2972 85.5231 71.7572C84.8289 73.2691 84.3328 75.0166 84.8554 76.6614C85.3259 78.1432 86.5056 79.2209 87.7974 80.0131C89.2232 80.8542 90.7398 81.5312 92.3181 82.0311C95.5669 83.111 98.9938 83.5541 102.411 83.3361C104.109 83.2208 105.793 82.9488 107.441 82.5234C109.194 82.0767 110.914 81.5105 112.67 81.0736C115.602 80.3457 118.945 79.9839 121.725 81.4459C124.426 82.8667 125.635 85.8383 126.008 88.7292C126.699 94.0673 124.581 99.6069 120.758 103.345C118.923 105.139 116.615 106.62 114.1 107.227C111.907 107.756 109.09 107.722 107.344 106.083C105.396 104.253 105.854 101.32 107.401 99.3898C109.376 96.9272 112.722 96.3357 115.708 96.2758C119.104 96.2076 122.498 96.7131 125.892 96.3988C127.549 96.27 129.175 95.878 130.708 95.2378C132.056 94.6451 133.286 93.8135 134.338 92.783C136.433 90.7482 137.847 88.0374 138.549 85.2188C139.396 81.8293 139.211 78.267 138.554 74.8624C138.204 73.1068 137.753 71.3729 137.204 69.669C136.977 68.95 135.841 69.2576 136.07 69.9815C138.093 76.393 139.221 83.8066 135.312 89.7593C133.695 92.2838 131.175 94.0966 128.266 94.8285C124.883 95.6688 121.334 95.2535 117.894 95.1285C114.624 95.0095 111.033 95.1379 108.23 97.0415C105.931 98.6028 104.322 101.573 105.017 104.376C105.687 107.08 108.287 108.452 110.887 108.663C113.615 108.885 116.3 107.97 118.591 106.539C123.357 103.562 126.526 98.3269 127.19 92.7766C127.535 89.8845 127.183 86.7693 125.871 84.1443C125.18 82.7233 124.104 81.5246 122.765 80.6841C121.43 79.8661 119.888 79.4635 118.339 79.3211C114.821 78.9972 111.441 80.2045 108.103 81.1281C106.398 81.6224 104.65 81.9559 102.883 82.124C101.168 82.266 99.4427 82.2379 97.733 82.0401C96.0365 81.84 94.3645 81.4692 92.7427 80.9331C91.1533 80.4421 89.6316 79.7545 88.2128 78.8863C86.9612 78.0863 85.8787 76.9406 85.8171 75.3792C85.7503 73.6863 86.6044 72.1026 87.4167 70.6753C89.0216 67.8557 91.0041 65.0979 91.4226 61.7972C91.7892 58.9098 90.6267 56.064 88.6194 54.0047C87.6133 52.9594 86.4022 52.133 85.0618 51.5772C83.7214 51.0214 82.2807 50.7483 80.8297 50.7748C77.8515 50.8601 74.9998 52.1545 72.8092 54.1426C71.7227 55.1292 70.8084 56.29 70.104 57.5771C69.7411 58.2415 70.7564 58.8354 71.1196 58.1704L71.122 58.1722Z" fill="#3F3D56"/>
</g>
<defs>
<clipPath id="clip0">
<rect width="206" height="138" fill="white" transform="translate(43)"/>
</clipPath>
</defs>
</svg>
