<svg width="295" height="138" viewBox="0 0 295 138" fill="none" xmlns="http://www.w3.org/2000/svg">
<g clip-path="url(#clip0)">
<path d="M172.494 115.807L173.642 138C173.642 138 125.106 91.4653 119.059 77.8498C113.012 64.2343 124.394 30.5539 124.394 30.5539L149.648 44.5277L172.494 115.807Z" fill="#9F616A"/>
<path d="M98.0733 21.238L90.6039 21.9546C90.6039 21.9546 86.6913 30.5539 98.7847 31.2705L98.0733 21.238Z" fill="#9F616A"/>
<path d="M98.0733 34.4952L90.6039 35.2118C90.6039 35.2118 86.6913 43.8111 98.7847 44.5277L98.0733 34.4952Z" fill="#9F616A"/>
<path d="M98.0733 48.8273L90.6039 49.5439C90.6039 49.5439 86.6913 58.1432 98.7847 58.8598L98.0733 48.8273Z" fill="#9F616A"/>
<path d="M100.208 63.1594L92.7381 63.876C92.7381 63.876 88.8255 72.4753 100.919 73.1919L100.208 63.1594Z" fill="#9F616A"/>
<path d="M94.437 24.6926H95.0038V9.05225C95.0038 7.86349 95.2362 6.68638 95.6878 5.58811C96.1394 4.48984 96.8013 3.49192 97.6358 2.65135C98.4702 1.81077 99.4609 1.14398 100.551 0.689065C101.641 0.234146 102.81 9.10776e-07 103.99 0H136.885C138.065 -2.42867e-06 139.233 0.234139 140.324 0.689054C141.414 1.14397 142.404 1.81075 143.239 2.65133C144.073 3.4919 144.735 4.48981 145.187 5.58808C145.638 6.68635 145.871 7.86346 145.871 9.05222V94.8567C145.871 96.0455 145.638 97.2226 145.187 98.3208C144.735 99.4191 144.073 100.417 143.239 101.258C142.404 102.098 141.414 102.765 140.324 103.22C139.233 103.675 138.065 103.909 136.885 103.909H103.99C101.607 103.909 99.3211 102.955 97.6358 101.258C95.9506 99.56 95.0038 97.2576 95.0038 94.8568V35.8258H94.437V24.6926Z" fill="#3F3D56"/>
<path d="M103.627 2.35511H107.921C107.724 2.84278 107.648 3.37188 107.702 3.89581C107.755 4.41974 107.935 4.92241 108.227 5.35954C108.519 5.79668 108.913 6.15486 109.374 6.40253C109.835 6.6502 110.35 6.77976 110.873 6.7798H129.718C130.241 6.77976 130.756 6.6502 131.217 6.40253C131.679 6.15486 132.072 5.79668 132.364 5.35955C132.656 4.92241 132.836 4.41974 132.889 3.89581C132.943 3.37188 132.867 2.84277 132.67 2.3551H136.68C138.46 2.3551 140.167 3.06732 141.426 4.33509C142.684 5.60285 143.391 7.32231 143.391 9.1152V94.7938C143.391 95.6816 143.218 96.5606 142.88 97.3808C142.543 98.201 142.049 98.9462 141.426 99.5739C140.803 100.202 140.063 100.7 139.249 101.039C138.434 101.379 137.562 101.554 136.68 101.554H103.627C102.746 101.554 101.873 101.379 101.059 101.039C100.245 100.7 99.5052 100.202 98.8821 99.5739C98.2589 98.9462 97.7646 98.201 97.4273 97.3808C97.0901 96.5606 96.9165 95.6816 96.9165 94.7938V94.7938V9.11521C96.9165 8.22746 97.0901 7.34841 97.4273 6.52823C97.7646 5.70806 98.2589 4.96283 98.8821 4.33509C99.5052 3.70736 100.245 3.20941 101.059 2.86969C101.873 2.52996 102.746 2.35511 103.627 2.35511Z" fill="white"/>
<path d="M127.235 26.358H113.072V29.8008H127.235V26.358Z" fill="#6C63FF"/>
<path d="M127.91 41.1515H112.398V44.5943H127.91V41.1515Z" fill="#E5E5E5"/>
<path d="M137.464 48.5471H102.844V51.9899H137.464V48.5471Z" fill="#E5E5E5"/>
<path d="M137.464 55.9426H102.844V59.3854H137.464V55.9426Z" fill="#E5E5E5"/>
<path d="M206 127.366L166.188 81.612L164.765 52.2312L149.826 27.15L145.558 16.4009C145.558 16.4009 135.599 17.4758 143.78 37.8991L147.159 48.8273C144.113 55.436 142.535 62.6345 142.535 69.9208V94.9627C142.535 100.859 170.429 132.978 173.676 137.884L206 127.366Z" fill="#9F616A"/>
<path opacity="0.2" d="M146.729 29.2753L149.699 27.805L149.598 27.5974L146.854 28.956L142.711 18.0161L142.497 18.0986L146.729 29.2753Z" fill="black"/>
<path opacity="0.2" d="M90.6438 21.8458L90.5645 22.0627L94.964 23.6953L95.0433 23.4783L90.6438 21.8458Z" fill="black"/>
<path opacity="0.2" d="M90.6438 35.2541L90.5645 35.471L94.964 37.1036L95.0433 36.8866L90.6438 35.2541Z" fill="black"/>
<path opacity="0.2" d="M90.6438 49.587L90.5645 49.804L94.964 51.4365L95.0433 51.2196L90.6438 49.587Z" fill="black"/>
<path opacity="0.2" d="M92.9484 63.9243L92.8491 64.1326L94.9911 65.1682L95.0904 64.9599L92.9484 63.9243Z" fill="black"/>
<path d="M120.171 89.0968C125.651 89.0968 130.092 84.6224 130.092 79.103C130.092 73.5836 125.651 69.1093 120.171 69.1093C114.692 69.1093 110.25 73.5836 110.25 79.103C110.25 84.6224 114.692 89.0968 120.171 89.0968Z" fill="#6C63FF"/>
<path d="M119.226 83.3217L116.257 79.4756L117.984 78.1228L119.389 79.9438L124.139 74.893L125.727 76.4088L119.226 83.3217Z" fill="white"/>
</g>
<defs>
<clipPath id="clip0">
<rect width="116" height="138" fill="white" transform="translate(90)"/>
</clipPath>
</defs>
</svg>
